<?xml version="1.0" encoding="UTF-8"?>
<svg version="1.1" xmlns="http://www.w3.org/2000/svg" width="256" height="256">
<path d="M0 0 C0.7940625 -0.01095703 1.588125 -0.02191406 2.40625 -0.03320312 C7.53455686 0.03090071 10.25613397 0.7674483 14 4.5625 C14.33 4.8925 14.66 5.2225 15 5.5625 C15.1875 8 15.1875 8 15 10.5625 C14.34 11.2225 13.68 11.8825 13 12.5625 C13.85271484 12.78292969 13.85271484 12.78292969 14.72265625 13.0078125 C23.29006909 15.49651005 28.54398505 19.83385731 33 27.55859375 C35.8471024 33.26392005 36.21847684 38.33591006 36 44.5625 C36.33 44.5625 36.66 44.5625 37 44.5625 C37 46.8725 37 49.1825 37 51.5625 C37.33 51.5625 37.66 51.5625 38 51.5625 C38.05397335 54.0002963 38.09365616 56.43689685 38.125 58.875 C38.14175781 59.56529297 38.15851563 60.25558594 38.17578125 60.96679688 C38.21217794 64.73385396 38.14378864 66.34681704 36 69.5625 C35.73445312 70.38105469 35.46890625 71.19960937 35.1953125 72.04296875 C33.65681908 75.28587155 31.9878019 76.15896818 28.875 77.875 C27.96492187 78.38675781 27.05484375 78.89851563 26.1171875 79.42578125 C25.41851562 79.80089844 24.71984375 80.17601562 24 80.5625 C24.33 81.2225 24.66 81.8825 25 82.5625 C26.0725 82.85125 27.145 83.14 28.25 83.4375 C33.46442892 85.00182868 36.04571201 86.89249601 38.75 91.625 C40.75290734 96.33183224 41.16018792 100.17479737 41.16796875 105.22265625 C41.17129715 105.96833359 41.17462555 106.71401093 41.17805481 107.48228455 C41.18311236 109.05662418 41.1854635 110.63097451 41.18530273 112.20532227 C41.18749499 114.61948116 41.20567832 117.03318722 41.22460938 119.44726562 C41.22754234 120.97656093 41.22952778 122.50585842 41.23046875 124.03515625 C41.23765427 124.75913101 41.24483978 125.48310577 41.25224304 126.22901917 C41.22883303 131.33366697 41.22883303 131.33366697 39 133.5625 C39.33 134.5525 39.66 135.5425 40 136.5625 C37.39561887 144.82467462 31.31147218 151.38089809 23.9296875 155.62890625 C21.21825421 156.94071304 19.01223615 157.38176583 16 157.5625 C15.21367187 157.63597656 14.42734375 157.70945313 13.6171875 157.78515625 C9.27098351 158.03814424 6.02809413 158.13348536 2.5 155.375 C0.12308883 152.70097493 -1.20095172 151.02504254 -2 147.5625 C-1.625 145.25 -1.625 145.25 -1 143.5625 C-1.66 143.2325 -2.32 142.9025 -3 142.5625 C-2.67 140.9125 -2.34 139.2625 -2 137.5625 C-2.66 137.2325 -3.32 136.9025 -4 136.5625 C-3.67 134.2525 -3.34 131.9425 -3 129.5625 C-3.66 129.5625 -4.32 129.5625 -5 129.5625 C-5.06058594 128.92441406 -5.12117188 128.28632813 -5.18359375 127.62890625 C-5.26738281 126.80261719 -5.35117188 125.97632813 -5.4375 125.125 C-5.51871094 124.30128906 -5.59992188 123.47757812 -5.68359375 122.62890625 C-5.78930815 120.57587975 -5.78930815 120.57587975 -7 119.5625 C-6.71269945 117.22305264 -6.38063221 114.8885857 -6 112.5625 C-6.66 112.5625 -7.32 112.5625 -8 112.5625 C-8.061875 111.964375 -8.12375 111.36625 -8.1875 110.75 C-8.8529021 108.38040603 -8.8529021 108.38040603 -11.125 106.875 C-14.4291384 105.36658899 -17.40832136 104.97692446 -21 104.5625 C-21.33 104.2325 -21.66 103.9025 -22 103.5625 C-22.825 103.5625 -23.65 103.5625 -24.5 103.5625 C-25.325 103.5625 -26.15 103.5625 -27 103.5625 C-27.33 103.2325 -27.66 102.9025 -28 102.5625 C-29.90357281 102.487193 -31.80989362 102.47937032 -33.71484375 102.5 C-34.87564453 102.50773437 -36.03644531 102.51546875 -37.23242188 102.5234375 C-39.69856814 102.54943799 -42.16471398 102.57547952 -44.63085938 102.6015625 C-45.79294922 102.60929687 -46.95503906 102.61703125 -48.15234375 102.625 C-49.22476318 102.63660156 -50.29718262 102.64820313 -51.40209961 102.66015625 C-54 102.5625 -54 102.5625 -56 101.5625 C-56 102.2225 -56 102.8825 -56 103.5625 C-59.12394391 104.39982743 -62.24931974 105.23167982 -65.375 106.0625 C-66.26445313 106.30097656 -67.15390625 106.53945312 -68.0703125 106.78515625 C-68.92109375 107.01074219 -69.771875 107.23632812 -70.6484375 107.46875 C-71.43395996 107.67822266 -72.21948242 107.88769531 -73.02880859 108.10351562 C-75 108.5625 -75 108.5625 -77 108.5625 C-76.67 110.5425 -76.34 112.5225 -76 114.5625 C-76.66 114.5625 -77.32 114.5625 -78 114.5625 C-77.67 116.5425 -77.34 118.5225 -77 120.5625 C-77.66 120.5625 -78.32 120.5625 -79 120.5625 C-78.814375 121.531875 -78.62875 122.50125 -78.4375 123.5 C-78.293125 124.510625 -78.14875 125.52125 -78 126.5625 C-78.33 126.8925 -78.66 127.2225 -79 127.5625 C-79 128.3875 -79 129.2125 -79 130.0625 C-79 130.8875 -79 131.7125 -79 132.5625 C-79.33 132.8925 -79.66 133.2225 -80 133.5625 C-80 134.3875 -80 135.2125 -80 136.0625 C-80 136.8875 -80 137.7125 -80 138.5625 C-80.33 138.8925 -80.66 139.2225 -81 139.5625 C-80.979375 140.26375 -80.95875 140.965 -80.9375 141.6875 C-81.0292361 145.90736055 -81.43165779 149.89586932 -84.43359375 153.0859375 C-85.90585653 154.30752724 -87.44998348 155.44121146 -89 156.5625 C-89.33 156.8925 -89.66 157.2225 -90 157.5625 C-96.91574806 158.87410739 -102.87476893 158.44181301 -109 154.5625 C-110.70680947 152.93696717 -112.37660195 151.27134005 -114 149.5625 C-114.66 148.9025 -115.32 148.2425 -116 147.5625 C-118.22189824 145.34060176 -118.92598892 143.47767292 -120 140.5625 C-120.66 140.5625 -121.32 140.5625 -122 140.5625 C-123.125 136.8125 -123.125 136.8125 -122 134.5625 C-122.66 134.5625 -123.32 134.5625 -124 134.5625 C-123.82960205 134.06266602 -123.6592041 133.56283203 -123.48364258 133.04785156 C-122.81389242 129.60612689 -123.07049743 126.27432508 -123.26171875 122.796875 C-123.3297214 121.25134339 -123.39674757 119.70576856 -123.46289062 118.16015625 C-123.57185827 115.73936037 -123.68711497 113.31953307 -123.81958008 110.89990234 C-124.71869518 94.08318357 -124.71869518 94.08318357 -120 87.5625 C-116.26219256 84.47474603 -112.64235474 82.88888707 -108 81.5625 C-110.03797153 79.88845196 -111.53281826 78.67242512 -114.125 78.0625 C-116 77.5625 -116 77.5625 -118 74.5625 C-118.7734375 73.69625 -118.7734375 73.69625 -119.5625 72.8125 C-122.81212471 67.7261309 -122.04613511 62.25812446 -121 56.5625 C-121.33 56.5625 -121.66 56.5625 -122 56.5625 C-121.85966889 54.58293559 -121.7125877 52.60384859 -121.5625 50.625 C-121.48128906 49.52285156 -121.40007812 48.42070313 -121.31640625 47.28515625 C-121 44.5625 -121 44.5625 -120 43.5625 C-120 42.5725 -120 41.5825 -120 40.5625 C-120 37.5625 -120 37.5625 -119 36.5625 C-118.896875 35.53125 -118.79375 34.5 -118.6875 33.4375 C-117.12879986 24.6520992 -112.75508508 21.20802722 -105.75390625 16.1640625 C-103.06939665 14.60285834 -101.05664514 13.95082152 -98 13.5625 C-98.33 10.5925 -98.66 7.6225 -99 4.5625 C-94.03233893 2.07866947 -89.97013315 1.93301971 -84.5 1.625 C-83.54996094 1.54443359 -82.59992188 1.46386719 -81.62109375 1.38085938 C-74.68223742 0.98560806 -74.68223742 0.98560806 -71.34375 3.80859375 C-70 6.5625 -70 6.5625 -70 10.5625 C-70.66 10.8925 -71.32 11.2225 -72 11.5625 C-72 12.5525 -72 13.5425 -72 14.5625 C-71.34 14.8925 -70.68 15.2225 -70 15.5625 C-69.91293108 18.83316566 -69.85958759 22.10353365 -69.8125 25.375 C-69.78736328 26.30376953 -69.76222656 27.23253906 -69.73632812 28.18945312 C-69.72666016 29.08212891 -69.71699219 29.97480469 -69.70703125 30.89453125 C-69.6913208 31.71671143 -69.67561035 32.5388916 -69.65942383 33.38598633 C-70 35.5625 -70 35.5625 -71.21289062 37.3359375 C-73.5681731 38.95245924 -75.04480431 38.90713992 -77.88671875 38.85546875 C-78.82451172 38.84580078 -79.76230469 38.83613281 -80.72851562 38.82617188 C-81.70498047 38.80103516 -82.68144531 38.77589844 -83.6875 38.75 C-84.67556641 38.73646484 -85.66363281 38.72292969 -86.68164062 38.70898438 C-89.12164231 38.67362203 -91.56054719 38.62427033 -94 38.5625 C-94.02690104 41.35423055 -94.04679053 44.14570348 -94.0625 46.9375 C-94.07087891 47.7315625 -94.07925781 48.525625 -94.08789062 49.34375 C-94.23040151 53.58642222 -94.23040151 53.58642222 -93 57.5625 C-91.35 57.5625 -89.7 57.5625 -88 57.5625 C-88 57.2325 -88 56.9025 -88 56.5625 C-83.80078534 56.53773149 -79.60160971 56.51960754 -75.40234375 56.50756836 C-73.97460184 56.50254794 -72.54686504 56.49573028 -71.11914062 56.48706055 C-69.06378921 56.47489447 -67.00850593 56.46924872 -64.953125 56.46484375 C-63.09929199 56.45698853 -63.09929199 56.45698853 -61.20800781 56.44897461 C-58.5854329 56.54178263 -56.48355406 56.77893327 -54 57.5625 C-52.69249631 54.94749263 -52.80526389 52.89365566 -52.71875 49.96875 C-52.68136719 48.85628906 -52.64398438 47.74382812 -52.60546875 46.59765625 C-52.57066406 45.43105469 -52.53585938 44.26445313 -52.5 43.0625 C-52.43131518 40.76028652 -52.35860367 38.45818851 -52.28125 36.15625 C-52.25095703 35.13208984 -52.22066406 34.10792969 -52.18945312 33.05273438 C-52 30.5625 -52 30.5625 -51 28.5625 C-50.814375 27.386875 -50.814375 27.386875 -50.625 26.1875 C-49.93526377 23.29060783 -49.01244736 21.73594315 -47 19.5625 C-46.34 19.5625 -45.68 19.5625 -45 19.5625 C-44.690625 18.634375 -44.690625 18.634375 -44.375 17.6875 C-42.44444875 14.7039208 -40.34938072 14.46962395 -37 13.5625 C-36.34 13.2325 -35.68 12.9025 -35 12.5625 C-33.26131256 12.40983388 -31.51752499 12.31317404 -29.7734375 12.24609375 C-28.2265625 12.18325195 -28.2265625 12.18325195 -26.6484375 12.11914062 C-25.56820312 12.07982422 -24.48796875 12.04050781 -23.375 12 C-22.28703125 11.95681641 -21.1990625 11.91363281 -20.078125 11.86914062 C-17.3855483 11.7628547 -14.69287747 11.66081943 -12 11.5625 C-12.99 11.0675 -12.99 11.0675 -14 10.5625 C-14.50226751 7.04662741 -14.19180905 5.82130821 -12.04296875 2.921875 C-7.93835563 -0.26064916 -5.04602614 -0.15154462 0 0 Z M-50 25.5625 C-49 27.5625 -49 27.5625 -49 27.5625 Z M-118 32.5625 C-117 36.5625 -117 36.5625 -117 36.5625 Z M34 36.5625 C35 40.5625 35 40.5625 35 40.5625 Z M-30 38.5625 C-32.01939832 42.60129665 -32.25856335 44.30675112 -32.30859375 48.68359375 C-32.33373047 49.86630859 -32.35886719 51.04902344 -32.38476562 52.26757812 C-32.41986596 54.75190171 -32.45112831 57.23628254 -32.47851562 59.72070312 C-32.50494141 60.90470703 -32.53136719 62.08871094 -32.55859375 63.30859375 C-32.57204834 64.38810303 -32.58550293 65.4676123 -32.59936523 66.57983398 C-33.1800321 70.90281208 -34.95519004 73.51769004 -38 76.5625 C-39.98387708 77.59411608 -41.98276656 78.59773618 -44 79.5625 C-42.12841495 81.86710814 -42.12841495 81.86710814 -39.11083984 81.78955078 C-37.30413818 81.77384033 -37.30413818 81.77384033 -35.4609375 81.7578125 C-34.15898437 81.75136719 -32.85703125 81.74492187 -31.515625 81.73828125 C-30.13541405 81.72156929 -28.75520571 81.70463939 -27.375 81.6875 C-25.98698548 81.67747006 -24.59896411 81.66834423 -23.2109375 81.66015625 C-19.80711974 81.63651863 -16.40364494 81.60356867 -13 81.5625 C-13.66 81.2325 -14.32 80.9025 -15 80.5625 C-15 73.3025 -15 66.0425 -15 58.5625 C-11.31111465 56.71805733 -9.91931805 56.29125554 -6.015625 56.1484375 C-4.61376953 56.09042969 -4.61376953 56.09042969 -3.18359375 56.03125 C-1.73146484 55.98484375 -1.73146484 55.98484375 -0.25 55.9375 C1.22533203 55.87949219 1.22533203 55.87949219 2.73046875 55.8203125 C5.15334289 55.7262203 7.57664545 55.64327848 10 55.5625 C10 49.9525 10 44.3425 10 38.5625 C-3.2 38.5625 -16.4 38.5625 -30 38.5625 Z M-97 39.5625 C-97 44.8425 -97 50.1225 -97 55.5625 C-96.67 55.5625 -96.34 55.5625 -96 55.5625 C-96 50.2825 -96 45.0025 -96 39.5625 C-96.33 39.5625 -96.66 39.5625 -97 39.5625 Z M11 43.5625 C11 45.8725 11 48.1825 11 50.5625 C11.33 50.5625 11.66 50.5625 12 50.5625 C12 48.2525 12 45.9425 12 43.5625 C11.67 43.5625 11.34 43.5625 11 43.5625 Z M-120 48.5625 C-119 50.5625 -119 50.5625 -119 50.5625 Z M35 48.5625 C36 50.5625 36 50.5625 36 50.5625 Z M-121 50.5625 C-120 54.5625 -120 54.5625 -120 54.5625 Z M-48 80.5625 C-44 81.5625 -44 81.5625 -44 81.5625 Z M-104 81.5625 C-104 81.8925 -104 82.2225 -104 82.5625 C-85.52 82.5625 -67.04 82.5625 -48 82.5625 C-48 82.2325 -48 81.9025 -48 81.5625 C-66.48 81.5625 -84.96 81.5625 -104 81.5625 Z M-12 81.5625 C-12 81.8925 -12 82.2225 -12 82.5625 C-1.77 82.5625 8.46 82.5625 19 82.5625 C19 82.2325 19 81.9025 19 81.5625 C8.77 81.5625 -1.46 81.5625 -12 81.5625 Z " fill="#FCFDFC" transform="translate(171,51.4375)"/>
<path d="M0 0 C1.21450836 -0.00315216 2.42901672 -0.00630432 3.68032837 -0.009552 C4.98770966 -0.00752777 6.29509094 -0.00550354 7.64208984 -0.00341797 C8.99921689 -0.00409178 10.35634382 -0.00506246 11.71347046 -0.00631714 C14.5529699 -0.00778945 17.39243782 -0.00565387 20.23193359 -0.00097656 C23.8749065 0.00473135 27.5178059 0.00143209 31.16077614 -0.00454903 C33.96083127 -0.00815795 36.76086888 -0.00701471 39.56092453 -0.00442123 C41.55848997 -0.00342846 43.55605608 -0.0064687 45.55361938 -0.009552 C46.76182343 -0.00639984 47.97002747 -0.00324768 49.21484375 0 C50.81557236 0.00119339 50.81557236 0.00119339 52.44863892 0.00241089 C54.97802734 0.12939453 54.97802734 0.12939453 56.97802734 1.12939453 C58.6442218 1.16906583 60.31193748 1.173239 61.97802734 1.12939453 C62.30802734 2.11939453 62.63802734 3.10939453 62.97802734 4.12939453 C19.08802734 4.12939453 -24.80197266 4.12939453 -70.02197266 4.12939453 C-70.02197266 3.13939453 -70.02197266 2.14939453 -70.02197266 1.12939453 C-69.27917053 1.13161514 -68.53636841 1.13383575 -67.77105713 1.13612366 C-60.7674202 1.15616904 -53.76379322 1.17139036 -46.76013565 1.1812067 C-43.15957667 1.18642304 -39.55904142 1.19349803 -35.95849609 1.20483398 C-32.48312904 1.21570723 -29.00778479 1.22168079 -25.53240204 1.22427177 C-23.56262967 1.22701591 -21.59286647 1.23482091 -19.62310791 1.24269104 C-18.42216492 1.24276657 -17.22122192 1.2428421 -15.98388672 1.24291992 C-14.92687561 1.24514053 -13.8698645 1.24736115 -12.78082275 1.24964905 C-8.42343462 1.05971644 -4.43363574 0.00330048 0 0 Z " fill="#E8E8E8" transform="translate(133.02197265625,131.87060546875)"/>
<path d="M0 0 C0.7940625 -0.01095703 1.588125 -0.02191406 2.40625 -0.03320312 C7.53455686 0.03090071 10.25613397 0.7674483 14 4.5625 C14.33 4.8925 14.66 5.2225 15 5.5625 C15.125 8.0625 15.125 8.0625 15 10.5625 C13.23011735 12.33238265 10.68034582 11.69279068 8.28515625 11.6953125 C7.12435547 11.69660156 5.96355469 11.69789062 4.76757812 11.69921875 C3.54490234 11.69535156 2.32222656 11.69148438 1.0625 11.6875 C-0.15630859 11.69136719 -1.37511719 11.69523437 -2.63085938 11.69921875 C-4.37399414 11.69728516 -4.37399414 11.69728516 -6.15234375 11.6953125 C-7.22476318 11.69418457 -8.29718262 11.69305664 -9.40209961 11.69189453 C-12 11.5625 -12 11.5625 -14 10.5625 C-14.50226751 7.04662741 -14.19180905 5.82130821 -12.04296875 2.921875 C-7.93835563 -0.26064916 -5.04602614 -0.15154462 0 0 Z " fill="#F8FAF9" transform="translate(171,51.4375)"/>
<path d="M0 0 C5.33851078 -0.07420941 10.67672067 -0.12863002 16.015625 -0.16479492 C17.83143342 -0.17987262 19.64720547 -0.20033798 21.46289062 -0.22631836 C24.07431008 -0.2627468 26.68524765 -0.27973638 29.296875 -0.29296875 C30.51271271 -0.31619453 30.51271271 -0.31619453 31.75311279 -0.33988953 C35.0851606 -0.34088234 37.54659523 -0.24080538 40.51953125 1.33813477 C42.75324434 3.84553664 42.39243826 5.84100672 42.25 9.125 C42.21390625 10.20007813 42.1778125 11.27515625 42.140625 12.3828125 C42.09421875 13.24648437 42.0478125 14.11015625 42 15 C42 16.14659066 42.06627764 17.29241405 42.125 18.4375 C42 21 42 21 40 23 C37.38623047 23.31884766 37.38623047 23.31884766 34.1171875 23.4140625 C32.95058594 23.45273438 31.78398437 23.49140625 30.58203125 23.53125 C28.74705078 23.57765625 28.74705078 23.57765625 26.875 23.625 C25.64394531 23.66367188 24.41289062 23.70234375 23.14453125 23.7421875 C20.09650624 23.8366999 17.04849138 23.92225494 14 24 C15.1809082 22.02441406 15.1809082 22.02441406 17 20 C19.36010742 19.54589844 19.36010742 19.54589844 22.10546875 19.609375 C23.57983398 19.62871094 23.57983398 19.62871094 25.08398438 19.6484375 C26.10814453 19.68195313 27.13230469 19.71546875 28.1875 19.75 C29.74114258 19.77707031 29.74114258 19.77707031 31.32617188 19.8046875 C33.88450836 19.85184578 36.44237007 19.92358948 39 20 C39 14.39 39 8.78 39 3 C26.13 3 13.26 3 0 3 C0 2.01 0 1.02 0 0 Z " fill="#DBE0D9" transform="translate(142,87)"/>
<path d="M0 0 C0.33 0 0.66 0 1 0 C1 8.25 1 16.5 1 25 C1.66 25 2.32 25 3 25 C3 25.66 3 26.32 3 27 C2.34 27 1.68 27 1 27 C0.67 27.66 0.34 28.32 0 29 C-6.22961977 29.05059881 -12.4591868 29.08569062 -18.68896484 29.10986328 C-20.8094277 29.11993751 -22.92987661 29.13359733 -25.05029297 29.15087891 C-28.09345943 29.17506489 -31.13644266 29.18646869 -34.1796875 29.1953125 C-35.60787308 29.21079636 -35.60787308 29.21079636 -37.06491089 29.22659302 C-37.94567291 29.22674408 -38.82643494 29.22689514 -39.73388672 29.22705078 C-40.51110077 29.231492 -41.28831482 29.23593323 -42.08908081 29.24050903 C-44 29 -44 29 -46 27 C-46.61806593 23.89033113 -46.69816316 20.72462189 -46.875 17.5625 C-46.9471875 16.69044922 -47.019375 15.81839844 -47.09375 14.91992188 C-47.46544319 8.55712139 -47.46544319 8.55712139 -45.1953125 5.83984375 C-43 5 -43 5 -40 6 C-40 6.66 -40 7.32 -40 8 C-40.66 8 -41.32 8 -42 8 C-42.02690104 10.79173055 -42.04679053 13.58320348 -42.0625 16.375 C-42.07087891 17.1690625 -42.07925781 17.963125 -42.08789062 18.78125 C-42.23040151 23.02392222 -42.23040151 23.02392222 -41 27 C-39.35 27 -37.7 27 -36 27 C-36 26.67 -36 26.34 -36 26 C-31.80078534 25.97523149 -27.60160971 25.95710754 -23.40234375 25.94506836 C-21.97460184 25.94004794 -20.54686504 25.93323028 -19.11914062 25.92456055 C-17.06378921 25.91239447 -15.00850593 25.90674872 -12.953125 25.90234375 C-11.09929199 25.89448853 -11.09929199 25.89448853 -9.20800781 25.88647461 C-6.5854329 25.97928263 -4.48355406 26.21643327 -2 27 C-0.68638302 24.37276604 -0.78746091 22.27389439 -0.68359375 19.3359375 C-0.62075195 17.65371094 -0.62075195 17.65371094 -0.55664062 15.9375 C-0.51732422 14.761875 -0.47800781 13.58625 -0.4375 12.375 C-0.37272461 10.59996094 -0.37272461 10.59996094 -0.30664062 8.7890625 C-0.20032574 5.85949672 -0.09829358 2.92984412 0 0 Z M-45 9 C-45 14.28 -45 19.56 -45 25 C-44.67 25 -44.34 25 -44 25 C-44 19.72 -44 14.44 -44 9 C-44.33 9 -44.66 9 -45 9 Z " fill="#E8EFE6" transform="translate(119,82)"/>
<path d="M0 0 C0.99 0 1.98 0 3 0 C4.87610909 4.74545239 5.26832617 8.98207543 5.1953125 14.0234375 C5.1924826 14.76961334 5.18965271 15.51578918 5.18673706 16.28457642 C5.17561687 18.64821988 5.15052821 21.01147268 5.125 23.375 C5.11495962 24.98567158 5.10583562 26.59634915 5.09765625 28.20703125 C5.0757044 32.13816944 5.04123185 36.06901867 5 40 C3.515 40.495 3.515 40.495 2 41 C1.97494385 39.97116699 1.9498877 38.94233398 1.92407227 37.88232422 C1.82953948 34.04675933 1.7294328 30.21135629 1.62768555 26.37597656 C1.58450951 24.71943969 1.54282303 23.06286328 1.50268555 21.40625 C1.4445607 19.0181082 1.38099052 16.6301623 1.31640625 14.2421875 C1.29969376 13.50757294 1.28298126 12.77295837 1.26576233 12.01608276 C1.14929408 7.9269034 0.77630378 4.01688857 0 0 Z " fill="#E0EBE0" transform="translate(207,143)"/>
<path d="M0 0 C12.19630917 0.65812461 24.0315887 1.42641678 36 4 C36 5.32 36 6.64 36 8 C34.35328588 7.69217504 32.70764424 7.37860766 31.0625 7.0625 C30.14597656 6.88847656 29.22945312 6.71445313 28.28515625 6.53515625 C26 6 26 6 25 5 C24.175 5 23.35 5 22.5 5 C21.675 5 20.85 5 20 5 C19.67 4.67 19.34 4.34 19 4 C17.29227642 3.91286169 15.58101351 3.89299993 13.87109375 3.90234375 C12.83662109 3.90556641 11.80214844 3.90878906 10.73632812 3.91210938 C9.64771484 3.92048828 8.55910156 3.92886719 7.4375 3.9375 C6.34501953 3.94201172 5.25253906 3.94652344 4.12695312 3.95117188 C1.41791505 3.96300174 -1.29101599 3.97948457 -4 4 C-2.68 3.67 -1.36 3.34 0 3 C0 2.01 0 1.02 0 0 Z " fill="#E7EDE7" transform="translate(124,150)"/>
<path d="M0 0 C0.721875 0.53625 1.44375 1.0725 2.1875 1.625 C-1.60791663 3.83899303 -5.56879421 4.63480198 -9.8125 5.625 C-9.4825 7.605 -9.1525 9.585 -8.8125 11.625 C-9.4725 11.625 -10.1325 11.625 -10.8125 11.625 C-10.4825 13.605 -10.1525 15.585 -9.8125 17.625 C-10.4725 17.625 -11.1325 17.625 -11.8125 17.625 C-11.626875 18.57375 -11.44125 19.5225 -11.25 20.5 C-10.8125 23.625 -10.8125 23.625 -11.8125 25.625 C-12.8025 25.625 -13.7925 25.625 -14.8125 25.625 C-14.67220581 23.4787974 -14.52511836 21.33303782 -14.375 19.1875 C-14.29378906 17.99253906 -14.21257812 16.79757813 -14.12890625 15.56640625 C-13.8125 12.625 -13.8125 12.625 -12.8125 11.625 C-12.44489269 9.29682036 -12.11008419 6.9631615 -11.8125 4.625 C-11.1525 4.625 -10.4925 4.625 -9.8125 4.625 C-9.8125 3.965 -9.8125 3.305 -9.8125 2.625 C-9.1525 2.625 -8.4925 2.625 -7.8125 2.625 C-7.8125 1.965 -7.8125 1.305 -7.8125 0.625 C-4.49183748 -1.17764537 -3.49974382 -1.71098587 0 0 Z " fill="#E9F4EB" transform="translate(103.8125,154.375)"/>
<path d="M0 0 C2 3 2 3 2 7 C-0.40059817 8.20029908 -1.89360649 8.11459743 -4.5703125 8.09765625 C-5.46621094 8.09443359 -6.36210938 8.09121094 -7.28515625 8.08789062 C-8.22230469 8.07951172 -9.15945312 8.07113281 -10.125 8.0625 C-11.06988281 8.05798828 -12.01476562 8.05347656 -12.98828125 8.04882812 C-15.32558387 8.03702357 -17.66276061 8.02055759 -20 8 C-20 7.67 -20 7.34 -20 7 C-14.06 7 -8.12 7 -2 7 C-2.33 6.01 -2.66 5.02 -3 4 C-2.67 3.01 -2.34 2.02 -2 1 C-8.6 0.67 -15.2 0.34 -22 0 C-22.66 1.65 -23.32 3.3 -24 5 C-24.66 5.66 -25.32 6.32 -26 7 C-26.33 5.02 -26.66 3.04 -27 1 C-22.56164878 -1.4956301 -18.49692553 -1.51635793 -13.5 -1.75 C-12.64535156 -1.80542969 -11.79070312 -1.86085937 -10.91015625 -1.91796875 C-10.08386719 -1.96050781 -9.25757812 -2.00304688 -8.40625 -2.046875 C-7.65666016 -2.08651367 -6.90707031 -2.12615234 -6.13476562 -2.16699219 C-3.60934526 -1.96944101 -2.12854086 -1.36321017 0 0 Z " fill="#EBF4EB" transform="translate(99,55)"/>
<path d="M0 0 C1.25393555 0.03383789 1.25393555 0.03383789 2.53320312 0.06835938 C4.58541149 0.1269939 6.63669202 0.21666785 8.6875 0.3125 C8.6875 0.6425 8.6875 0.9725 8.6875 1.3125 C3.0775 1.3125 -2.5325 1.3125 -8.3125 1.3125 C-8.6425 2.6325 -8.9725 3.9525 -9.3125 5.3125 C-9.9725 6.6325 -10.6325 7.9525 -11.3125 9.3125 C-3.7225 9.6425 3.8675 9.9725 11.6875 10.3125 C11.6875 8.3325 11.6875 6.3525 11.6875 4.3125 C12.6775 4.6425 13.6675 4.9725 14.6875 5.3125 C14.730221 6.97861905 14.72813832 8.64632885 14.6875 10.3125 C12.91761735 12.08238265 10.36784582 11.44279068 7.97265625 11.4453125 C6.81185547 11.44660156 5.65105469 11.44789062 4.45507812 11.44921875 C3.23240234 11.44535156 2.00972656 11.44148438 0.75 11.4375 C-0.46880859 11.44136719 -1.68761719 11.44523437 -2.94335938 11.44921875 C-4.68649414 11.44728516 -4.68649414 11.44728516 -6.46484375 11.4453125 C-7.53726318 11.44418457 -8.60968262 11.44305664 -9.71459961 11.44189453 C-12.3125 11.3125 -12.3125 11.3125 -14.3125 10.3125 C-14.81361843 6.80467098 -14.49606467 5.56416124 -12.375 2.65625 C-8.17337346 -0.55928052 -5.12716295 -0.26303519 0 0 Z " fill="#E1EAE3" transform="translate(171.3125,51.6875)"/>
<path d="M0 0 C-2.6855594 2.6855594 -5.37621328 3.06049974 -9 4 C-8.67 4.66 -8.34 5.32 -8 6 C-8.9075 6.226875 -9.815 6.45375 -10.75 6.6875 C-14.61648634 8.24896564 -15.78916176 9.49315314 -18 13 C-18.81326365 15.09237736 -19.54115662 17.17947405 -20.19140625 19.328125 C-20.59166016 20.15570313 -20.59166016 20.15570313 -21 21 C-21.99 21.33 -22.98 21.66 -24 22 C-23.56299832 16.6467294 -22.57834784 12.18213854 -19 8 C-7.32762497 -1.78239526 -7.32762497 -1.78239526 0 0 Z " fill="#E9F0E9" transform="translate(76,66)"/>
<path d="M0 0 C-0.14049518 1.47968324 -0.28754826 2.95874516 -0.4375 4.4375 C-0.51871094 5.26121094 -0.59992188 6.08492187 -0.68359375 6.93359375 C-1 9 -1 9 -2 10 C-1.979375 10.70125 -1.95875 11.4025 -1.9375 12.125 C-2.02989857 16.37533428 -2.44570846 20.35063212 -5.46875 23.55859375 C-6.92635968 24.77212257 -8.45889998 25.89442825 -10 27 C-10 25.68 -10 24.36 -10 23 C-9.34 23 -8.68 23 -8 23 C-6.29915181 17.67067568 -5.47986031 12.56890517 -5 7 C-4.34 7 -3.68 7 -3 7 C-3.33 5.02 -3.66 3.04 -4 1 C-2 0 -2 0 0 0 Z " fill="#DFEBE4" transform="translate(92,181)"/>
<path d="M0 0 C-0.33 9.24 -0.66 18.48 -1 28 C-1.99 28.33 -2.98 28.66 -4 29 C-4 19.76 -4 10.52 -4 1 C-2 0 -2 0 0 0 Z " fill="#F2F3F0" transform="translate(142,87)"/>
<path d="M0 0 C0.99 0.33 1.98 0.66 3 1 C3 7.6 3 14.2 3 21 C1.68 21.33 0.36 21.66 -1 22 C-0.67 14.74 -0.34 7.48 0 0 Z " fill="#E5F3E7" transform="translate(98,66)"/>
<path d="M0 0 C7.92 0 15.84 0 24 0 C24 0.33 24 0.66 24 1 C22.67935547 1.19916016 22.67935547 1.19916016 21.33203125 1.40234375 C19.58986328 1.66724609 19.58986328 1.66724609 17.8125 1.9375 C16.08966797 2.19853516 16.08966797 2.19853516 14.33203125 2.46484375 C12.3144506 2.7888866 10.3028242 3.16213391 8.3125 3.625 C4.90574493 4.17744677 2.22388676 3.07462892 -1 2 C-0.67 1.34 -0.34 0.68 0 0 Z " fill="#E7F5E5" transform="translate(136,64)"/>
<path d="M0 0 C0.99 0 1.98 0 3 0 C4.06061259 4.24602144 4.03535509 8.1250969 3.87890625 12.48828125 C3.85529526 13.19147995 3.83168427 13.89467865 3.80735779 14.6191864 C3.7311907 16.85052072 3.64696693 19.081466 3.5625 21.3125 C3.50923218 22.83136159 3.45649215 24.3502418 3.40429688 25.86914062 C3.2756401 29.57966209 3.13975943 33.28987824 3 37 C2.67 37 2.34 37 2 37 C1.97494385 36.09233887 1.9498877 35.18467773 1.92407227 34.24951172 C1.82856941 30.86121766 1.72935916 27.47307331 1.62768555 24.08496094 C1.58454663 22.62243852 1.54285805 21.15987253 1.50268555 19.69726562 C1.4444693 17.5871064 1.38092712 15.47716225 1.31640625 13.3671875 C1.27974854 12.09987793 1.24309082 10.83256836 1.20532227 9.52685547 C1.01628964 6.27980984 0.6037927 3.19301052 0 0 Z " fill="#D9E0D9" transform="translate(207,143)"/>
<path d="M0 0 C2.0859375 1.5546875 2.0859375 1.5546875 3.625 3.125 C3.625 4.115 3.625 5.105 3.625 6.125 C2.965 6.125 2.305 6.125 1.625 6.125 C0.965 4.475 0.305 2.825 -0.375 1.125 C-1.5815625 1.2178125 -1.5815625 1.2178125 -2.8125 1.3125 C-7.35148733 1.07360593 -11.14401601 -0.29543264 -15.375 -1.875 C-15.375 -2.205 -15.375 -2.535 -15.375 -2.875 C-9.20732368 -4.5076202 -5.15798711 -3.66608255 0 0 Z " fill="#EEEFEB" transform="translate(195.375,68.875)"/>
<path d="M0 0 C2 3 2 3 2.625 5.375 C4.70053396 9.33738302 8.15756215 10.90006303 12 13 C11.67 13.66 11.34 14.32 11 15 C7.18078224 13.89667042 4.57795972 13.06899967 2 10 C1.46375 9.525625 0.9275 9.05125 0.375 8.5625 C-1.27468918 6.6878532 -1.76732945 5.48181924 -2 3 C-1.34 2.01 -0.68 1.02 0 0 Z " fill="#ECF4EC" transform="translate(52,117)"/>
<path d="M0 0 C4.96996601 1.16940377 8.23910808 2.34972254 12 6 C12.33 6.99 12.66 7.98 13 9 C11.68 9.33 10.36 9.66 9 10 C8.67 8.68 8.34 7.36 8 6 C7.401875 5.855625 6.80375 5.71125 6.1875 5.5625 C4.43849596 5.1127561 2.71322977 4.57107659 1 4 C0.3125 1.9375 0.3125 1.9375 0 0 Z " fill="#EEF5ED" transform="translate(196,134)"/>
<path d="M0 0 C1.32 0.33 2.64 0.66 4 1 C4 2.32 4 3.64 4 5 C1.59940183 6.20029908 0.10639351 6.11459743 -2.5703125 6.09765625 C-3.46621094 6.09443359 -4.36210938 6.09121094 -5.28515625 6.08789062 C-6.22230469 6.07951172 -7.15945312 6.07113281 -8.125 6.0625 C-9.06988281 6.05798828 -10.01476562 6.05347656 -10.98828125 6.04882812 C-13.32558387 6.03702357 -15.66276061 6.02055759 -18 6 C-18 5.67 -18 5.34 -18 5 C-12.06 5 -6.12 5 0 5 C-0.33 4.01 -0.66 3.02 -1 2 C-0.67 1.34 -0.34 0.68 0 0 Z " fill="#E4E9E6" transform="translate(97,57)"/>
<path d="M0 0 C0.66 0.33 1.32 0.66 2 1 C2.12246094 1.62390625 2.24492187 2.2478125 2.37109375 2.890625 C3.22394761 5.75112861 4.51288845 6.29307912 7.0625 7.75 C7.79597656 8.17796875 8.52945313 8.6059375 9.28515625 9.046875 C10.13400391 9.51867187 10.13400391 9.51867187 11 10 C10.67 10.66 10.34 11.32 10 12 C6.11717622 11.77812436 5.03669303 11.03752696 2.25 8.1875 C-0.7862069 3.8862069 -0.7862069 3.8862069 -1 1 C-0.67 0.67 -0.34 0.34 0 0 Z " fill="#DFE8DC" transform="translate(170,197)"/>
<path d="M0 0 C0 0.66 0 1.32 0 2 C-1.63260714 3.37482707 -3.30225062 4.70647667 -5 6 C-5.66 6.66 -6.32 7.32 -7 8 C-7.99 7.01 -8.98 6.02 -10 5 C-7.05274682 0.64929292 -5.38362365 0 0 0 Z " fill="#E2E7E3" transform="translate(60,136)"/>
<path d="M0 0 C-0.33 2.97 -0.66 5.94 -1 9 C-1.66 9 -2.32 9 -3 9 C-3.66 9.99 -4.32 10.98 -5 12 C-5 10.35 -5 8.7 -5 7 C-4.34 7 -3.68 7 -3 7 C-3.33 5.02 -3.66 3.04 -4 1 C-2 0 -2 0 0 0 Z " fill="#E8F2EB" transform="translate(92,181)"/>
<path d="M0 0 C0.33 0.66 0.66 1.32 1 2 C2.86492402 2.38995102 2.86492402 2.38995102 5 2.5 C7.1875 2.65625 7.1875 2.65625 9 3 C9.33 3.66 9.66 4.32 10 5 C7.36 5.33 4.72 5.66 2 6 C2 5.34 2 4.68 2 4 C1.34 4 0.68 4 0 4 C-0.33 3.01 -0.66 2.02 -1 1 C-0.67 0.67 -0.34 0.34 0 0 Z " fill="#E0EAE1" transform="translate(71,204)"/>
<path d="M0 0 C-1.6875 2.5 -1.6875 2.5 -4 5 C-6.75 5.3125 -6.75 5.3125 -9 5 C-8.00233891 2.50584728 -7.31383315 1.21259665 -5.0625 -0.3125 C-3 -1 -3 -1 0 0 Z " fill="#E0EEDE" transform="translate(135,66)"/>
<path d="M0 0 C0.66 0 1.32 0 2 0 C3.125 7.75 3.125 7.75 2 10 C1.34 10 0.68 10 0 10 C-0.19412181 8.52168779 -0.38012131 7.04230684 -0.5625 5.5625 C-0.66691406 4.73878906 -0.77132812 3.91507813 -0.87890625 3.06640625 C-0.91886719 2.38449219 -0.95882812 1.70257813 -1 1 C-0.67 0.67 -0.34 0.34 0 0 Z " fill="#D6E1D4" transform="translate(166,171)"/>
<path d="M0 0 C0.99 0.33 1.98 0.66 3 1 C3 1.66 3 2.32 3 3 C2.34 3 1.68 3 1 3 C0.67 7.62 0.34 12.24 0 17 C-0.33 17 -0.66 17 -1 17 C-1.33 11.72 -1.66 6.44 -2 1 C-1.34 0.67 -0.68 0.34 0 0 Z " fill="#E2E9E2" transform="translate(76,87)"/>
<path d="M0 0 C0.66 0.33 1.32 0.66 2 1 C0.52307692 6.66153846 0.52307692 6.66153846 -2.125 8.375 C-2.74375 8.58125 -3.3625 8.7875 -4 9 C-4 8.01 -4 7.02 -4 6 C-3.34 5.67 -2.68 5.34 -2 5 C-1.6278958 3.67696283 -1.29369827 2.34262065 -1 1 C-0.67 0.67 -0.34 0.34 0 0 Z " fill="#E5F1E7" transform="translate(208,188)"/>
<path d="M0 0 C1.32 0.33 2.64 0.66 4 1 C4.125 6.75 4.125 6.75 3 9 C2.34 9 1.68 9 1 9 C0.67 6.03 0.34 3.06 0 0 Z M2 5 C3 7 3 7 3 7 Z " fill="#E5EAE1" transform="translate(204,95)"/>
<path d="M0 0 C0.66 0.33 1.32 0.66 2 1 C1.34 3.31 0.68 5.62 0 8 C-0.99 8 -1.98 8 -3 8 C-3 6.35 -3 4.7 -3 3 C-2.34 3 -1.68 3 -1 3 C-0.67 2.01 -0.34 1.02 0 0 Z " fill="#D1DFD2" transform="translate(160,54)"/>
<path d="M0 0 C0.33 0.66 0.66 1.32 1 2 C1.99 2 2.98 2 4 2 C4.33 4.31 4.66 6.62 5 9 C4.01 9 3.02 9 2 9 C0.875 5.25 0.875 5.25 2 3 C1.34 3 0.68 3 0 3 C0 2.01 0 1.02 0 0 Z " fill="#E8F3E5" transform="translate(47,183)"/>
<path d="M0 0 C-0.33 0.99 -0.66 1.98 -1 3 C-2.9375 3.75 -2.9375 3.75 -5 4 C-5.66 3.67 -6.32 3.34 -7 3 C-6.67 2.01 -6.34 1.02 -6 0 C-3.42525708 -0.99667468 -2.51072708 -1.25536354 0 0 Z " fill="#EFF7EC" transform="translate(196,204)"/>
<path d="M0 0 C2.64 0 5.28 0 8 0 C7.38125 0.28875 6.7625 0.5775 6.125 0.875 C3.86674235 1.93720042 3.86674235 1.93720042 2 4 C-1.125 4.125 -1.125 4.125 -4 4 C-2.68 3.67 -1.36 3.34 0 3 C0 2.01 0 1.02 0 0 Z " fill="#EAF1ED" transform="translate(124,150)"/>
<path d="M0 0 C0 1.32 0 2.64 0 4 C-2.64 3.34 -5.28 2.68 -8 2 C-4.77208445 -0.1519437 -3.71599191 -0.20086443 0 0 Z " fill="#E2F0E1" transform="translate(160,154)"/>
<path d="M0 0 C0.99 0.33 1.98 0.66 3 1 C1.7912883 4.6261351 -0.35694503 6.35694503 -3 9 C-3 7.35 -3 5.7 -3 4 C-2.34 4 -1.68 4 -1 4 C-0.67 2.68 -0.34 1.36 0 0 Z " fill="#E0E8DE" transform="translate(136,120)"/>
<path d="M0 0 C0.99 0.33 1.98 0.66 3 1 C1.68 3.31 0.36 5.62 -1 8 C-1.66 6.68 -2.32 5.36 -3 4 C-2.01 2.68 -1.02 1.36 0 0 Z " fill="#E9F4E9" transform="translate(124,71)"/>
<path d="M0 0 C2 2 2 2 2 6 C0.68 5.67 -0.64 5.34 -2 5 C-2 3.68 -2 2.36 -2 1 C-1.34 0.67 -0.68 0.34 0 0 Z " fill="#EDF4EA" transform="translate(170,189)"/>
<path d="M0 0 C5.94 0 11.88 0 18 0 C18 0.33 18 0.66 18 1 C12.06 1 6.12 1 0 1 C0 0.67 0 0.34 0 0 Z " fill="#E4EFE2" transform="translate(77,52)"/>
<path d="M0 0 C0.99 0.33 1.98 0.66 3 1 C3 1.66 3 2.32 3 3 C2.34 3 1.68 3 1 3 C1 4.65 1 6.3 1 8 C0.34 8 -0.32 8 -1 8 C-0.67 5.36 -0.34 2.72 0 0 Z " fill="#EAF3E6" transform="translate(168,180)"/>
<path d="M0 0 C3.24208567 0.35049575 4.61527704 0.56221181 6.8125 3.0625 C7.204375 3.701875 7.59625 4.34125 8 5 C7.01 5.33 6.02 5.66 5 6 C4.731875 5.195625 4.46375 4.39125 4.1875 3.5625 C3.795625 2.716875 3.40375 1.87125 3 1 C2.01 0.67 1.02 0.34 0 0 Z " fill="#D6DCD9" transform="translate(192,69)"/>
<path d="M0 0 C1.65 0 3.3 0 5 0 C5 0.33 5 0.66 5 1 C3.35 1 1.7 1 0 1 C0 0.67 0 0.34 0 0 Z " fill="#DEF1DD" transform="translate(180,209)"/>
<path d="" fill="#E5F4E4" transform="translate(0,0)"/>
<path d="" fill="#E7F2E8" transform="translate(0,0)"/>
<path d="" fill="#E8F6E8" transform="translate(0,0)"/>
<path d="M0 0 C2 1 2 1 2 1 Z " fill="#ECEFEB" transform="translate(195,132)"/>
<path d="M0 0 C2 1 2 1 2 1 Z " fill="#ECF0EA" transform="translate(60,132)"/>
<path d="M0 0 C2 1 2 1 2 1 Z " fill="#EFF1ED" transform="translate(197,131)"/>
<path d="" fill="#E7F9EA" transform="translate(0,0)"/>
<path d="" fill="#F1F9F2" transform="translate(0,0)"/>
<path d="" fill="#EEF3F1" transform="translate(0,0)"/>
<path d="" fill="#F8F8F8" transform="translate(0,0)"/>
<path d="" fill="#EFF7ED" transform="translate(0,0)"/>
<path d="" fill="#EDF1E9" transform="translate(0,0)"/>
<path d="" fill="#ECECEC" transform="translate(0,0)"/>
<path d="" fill="#E9F8EC" transform="translate(0,0)"/>
<path d="" fill="#F0F7EB" transform="translate(0,0)"/>
<path d="" fill="#E7EAE7" transform="translate(0,0)"/>
<path d="" fill="#EFF9F4" transform="translate(0,0)"/>
<path d="" fill="#D8E5D7" transform="translate(0,0)"/>
<path d="" fill="#D9EDDD" transform="translate(0,0)"/>
<path d="" fill="#E2F0E2" transform="translate(0,0)"/>
</svg>
